# xmcd
#
# Track frame offsets:
#	182
#	13645
#	28707
#	42445
#	58170
#	70845
#	83645
#	96295
#	107620
#	121470
#	142007
#	157870
#	175045
#	192070
#	208382
#	222207
#
# Disc length: 3129 seconds
#
# Revision: 0
# Processed by: cddbd v1.4PL0 Copyright (c) Steve Scherf et al.
# Submitted via: dBpowerAMP V4.0
#
DISCID=df0c3710
DTITLE=Percy Slegde - When a man loves a woman
DYEAR=1983
DGENRE=Oldies
TTITLE0=When a man loves a woman
TTITLE1=Warm and tender love
TTITLE2=Take time to know her
TTITLE3=Out of left field
TTITLE4=Dark end of the street
TTITLE5=Cover me
TTITLE6=Sudden stop
TTITLE7=Baby, help me
TTITLE8=My special prayer
TTITLE9=The good love
TTITLE10=Walking in the sun
TTITLE11=Make it good and make it last
TTITLE12=Behind closed doors
TTITLE13=Just out of reach of my two empty arms
TTITLE14=I belive in you
TTITLE15=It tears me up
EXTD=
EXTT0=
EXTT1=
EXTT2=
EXTT3=
EXTT4=
EXTT5=
EXTT6=
EXTT7=
EXTT8=
EXTT9=
EXTT10=
EXTT11=
EXTT12=
EXTT13=
EXTT14=
EXTT15=
PLAYORDER=
